<?xml version="1.0" standalone="no"?>
<!DOCTYPE svg PUBLIC "-//W3C//DTD SVG 20010904//EN"
 "http://www.w3.org/TR/2001/REC-SVG-20010904/DTD/svg10.dtd">
<svg version="1.0" xmlns="http://www.w3.org/2000/svg"
 width="640.000000pt" height="640.000000pt" viewBox="0 0 640.000000 640.000000"
 preserveAspectRatio="xMidYMid meet">
<metadata>
Created by potrace 1.11, written by Peter Selinger 2001-2013
</metadata>
<g transform="translate(0.000000,640.000000) scale(0.100000,-0.100000)"
fill="#000000" stroke="none">
<path d="M2939 6116 c-2 -2 -38 -7 -79 -11 -41 -4 -79 -9 -83 -12 -5 -3 -19
-7 -33 -9 -57 -9 -70 -13 -96 -23 -16 -6 -28 -8 -28 -5 0 4 -7 1 -15 -6 -8 -7
-15 -10 -15 -7 0 13 -220 -78 -231 -95 -3 -5 -8 -9 -10 -7 -9 6 -89 -47 -89
-58 0 -7 -5 -13 -11 -13 -14 0 -109 -94 -109 -109 0 -6 -4 -11 -10 -11 -5 0
-9 -3 -8 -7 1 -5 -3 -18 -10 -29 -6 -12 -9 -23 -7 -26 2 -2 -6 -5 -17 -5 -36
-3 -138 -36 -138 -45 0 -4 -7 -8 -15 -8 -16 0 -74 -37 -87 -55 -4 -5 -8 -6 -8
-1 0 5 -14 -5 -30 -23 -17 -17 -33 -31 -36 -31 -10 0 -54 -50 -54 -61 0 -6 -4
-7 -10 -4 -5 3 -10 1 -10 -5 0 -6 -9 -21 -20 -33 -11 -12 -18 -27 -15 -35 2
-7 1 -11 -3 -8 -18 11 -58 -47 -46 -66 5 -7 2 -8 -6 -3 -10 6 -12 4 -7 -9 4
-10 3 -15 -3 -11 -6 3 -10 1 -10 -4 0 -22 -2 -26 -16 -34 -8 -5 -12 -12 -9
-18 4 -5 2 -9 -4 -9 -9 0 -22 -26 -20 -43 0 -4 -6 -18 -14 -31 -12 -18 -36
-86 -41 -116 -1 -3 -4 -9 -7 -15 -4 -5 -5 -18 -4 -27 2 -10 -1 -18 -6 -18 -4
0 -6 -6 -3 -14 3 -8 1 -17 -5 -21 -6 -3 -11 -11 -11 -16 0 -6 6 -7 13 -3 8 5
8 3 -2 -9 -7 -9 -11 -26 -8 -37 3 -11 0 -23 -6 -28 -12 -7 -14 -17 -18 -77 -2
-16 -7 -36 -12 -42 -6 -9 -5 -13 3 -13 9 0 10 -3 1 -13 -6 -8 -9 -23 -6 -35 2
-12 1 -22 -3 -22 -10 0 -7 -53 3 -70 5 -9 4 -11 -3 -6 -8 5 -12 0 -12 -13 0
-12 6 -21 13 -21 7 0 8 -3 2 -8 -5 -4 -10 -20 -10 -37 0 -16 -3 -37 -7 -46 -4
-9 -2 -21 4 -27 9 -9 8 -12 -2 -12 -12 0 -12 -2 -2 -9 17 -11 17 -21 0 -32 -7
-5 -8 -9 -2 -9 6 0 11 -19 12 -42 2 -24 3 -64 5 -90 1 -27 4 -48 7 -48 3 0 5
-12 6 -27 1 -35 11 -103 18 -123 6 -17 13 -55 22 -115 4 -22 10 -43 16 -46 5
-3 10 -19 11 -35 1 -16 5 -32 10 -35 4 -3 1 -21 -6 -40 -14 -35 -15 -97 -1
-179 4 -25 8 -56 8 -70 1 -14 5 -31 9 -37 5 -8 3 -13 -5 -13 -8 0 -6 -5 5 -11
14 -8 16 -14 6 -25 -6 -8 -7 -14 -2 -14 5 0 10 -6 10 -12 0 -7 4 -31 8 -53 4
-22 8 -51 10 -65 4 -42 45 -183 67 -230 26 -55 63 -101 73 -92 4 4 3 -3 -3
-14 -7 -12 -13 -50 -14 -85 l-3 -64 -51 -1 c-28 0 -58 -3 -67 -7 -9 -3 -17 -1
-19 5 -3 8 -11 7 -27 -2 -19 -10 -22 -10 -15 2 6 11 5 11 -8 0 -9 -7 -19 -9
-21 -5 -7 10 -68 10 -85 -1 -7 -4 -12 -3 -12 2 0 10 -30 9 -47 -1 -6 -4 -14
-4 -16 1 -6 9 -70 7 -86 -2 -5 -4 -13 -1 -17 5 -4 8 -9 7 -15 -2 -5 -8 -9 -9
-9 -4 0 14 -92 10 -126 -6 -33 -16 -74 -82 -74 -119 0 -15 -5 -31 -12 -38 -8
-8 -9 -12 -1 -12 12 0 12 -25 0 -36 -4 -4 -2 -13 4 -21 9 -10 8 -13 -1 -13
-10 0 -10 -3 0 -15 7 -8 8 -15 3 -15 -11 0 -11 -50 0 -68 5 -7 3 -12 -3 -12
-8 0 -7 -6 1 -21 8 -16 8 -20 -1 -14 -9 6 -9 2 -1 -14 9 -16 9 -21 -1 -21 -10
0 -10 -2 0 -9 19 -11 19 -15 4 -33 -10 -13 -9 -18 3 -28 10 -8 12 -17 6 -28
-5 -8 -6 -27 -2 -41 4 -14 6 -50 6 -78 0 -29 4 -53 8 -53 5 0 5 -6 0 -12 -10
-17 -13 -38 -5 -38 4 0 8 -35 9 -78 2 -128 6 -166 16 -180 6 -8 5 -17 -3 -27
-10 -12 -10 -15 1 -15 11 0 11 -2 -1 -10 -9 -6 -10 -10 -3 -10 7 0 10 -10 7
-24 -2 -14 0 -27 5 -30 6 -4 6 -18 1 -35 -4 -15 -5 -33 -1 -40 4 -6 6 -29 5
-51 -1 -25 3 -40 10 -40 7 0 6 -3 -2 -9 -15 -9 -15 -17 -1 -43 7 -12 6 -18 -1
-18 -6 0 -8 -5 -5 -10 4 -6 8 -45 11 -88 2 -42 6 -88 7 -101 1 -19 -16 -44
-71 -100 -87 -89 -93 -97 -118 -136 -10 -16 -27 -39 -36 -49 -10 -11 -21 -29
-24 -40 -4 -12 -9 -23 -13 -26 -12 -10 -31 -50 -31 -65 0 -9 -4 -14 -9 -11 -5
3 -12 -10 -15 -29 -4 -19 -10 -35 -14 -35 -4 0 -12 -11 -19 -25 -8 -19 -8 -23
0 -18 8 4 8 2 0 -9 -7 -8 -10 -18 -6 -21 3 -4 1 -7 -6 -7 -7 0 -9 -5 -6 -10 3
-6 3 -10 -2 -10 -13 0 -56 -147 -48 -161 5 -7 4 -10 -2 -6 -6 4 -14 -5 -18
-21 -5 -15 -9 -31 -11 -37 -4 -15 -13 -52 -18 -75 -3 -11 -7 -23 -9 -28 -7
-10 -19 -83 -19 -104 1 -10 -2 -18 -6 -18 -4 0 -8 -17 -8 -37 0 -21 -2 -60 -5
-88 l-3 -50 202 -2 c154 -1 201 1 196 10 -5 8 -3 8 7 -1 17 -16 101 -16 118 0
9 8 11 8 8 2 -5 -9 336 -12 1353 -12 1009 0 1358 3 1353 12 -5 8 -3 8 8 0 19
-15 2244 -14 2244 1 0 6 -4 9 -8 7 -5 -1 -6 2 -2 7 3 6 11 8 18 5 8 -3 13 7
13 27 1 21 -1 27 -7 18 -4 -7 -11 -11 -14 -7 -3 3 1 13 10 22 15 15 15 16 -2
16 -13 0 -19 7 -19 24 0 14 3 23 6 21 4 -2 7 3 7 11 0 9 -6 13 -14 10 -8 -3
-11 -1 -8 4 3 6 3 16 -2 23 -11 18 -13 38 -2 31 5 -3 6 -10 3 -16 -5 -7 -2 -8
5 -4 9 6 8 13 -6 28 -10 11 -18 23 -18 27 0 3 -4 5 -9 3 -5 -2 -4 3 3 12 8 10
9 16 1 21 -5 3 -10 17 -10 31 0 18 -4 23 -12 18 -10 -6 -10 -4 0 8 9 11 10 18
2 23 -5 3 -10 15 -10 26 0 10 -4 19 -8 19 -4 0 -9 12 -10 27 -1 15 -6 29 -11
32 -4 3 -12 20 -16 36 -5 17 -9 32 -10 35 -1 3 -8 21 -17 41 -9 20 -19 45 -22
57 -4 12 -11 22 -16 22 -5 0 -7 7 -4 15 4 8 1 15 -4 15 -6 0 -9 9 -7 20 2 13
-2 20 -11 20 -8 0 -13 3 -12 8 1 4 -6 24 -15 46 -9 21 -17 43 -17 48 0 5 -4 6
-10 3 -5 -3 -10 2 -10 12 -1 23 -25 55 -34 45 -5 -4 -7 0 -5 8 4 21 -20 62
-32 55 -5 -4 -9 -3 -8 2 4 22 -2 43 -11 38 -5 -3 -10 0 -10 7 0 7 -11 24 -25
38 -72 74 -95 100 -85 100 7 0 7 7 -1 21 -6 12 -7 19 -1 15 6 -4 11 14 14 44
2 29 -1 50 -7 50 -5 0 -4 4 4 9 7 5 10 14 6 20 -4 7 -1 19 7 28 7 9 11 19 10
22 -17 28 -20 39 -15 45 11 11 12 56 1 56 -7 0 -7 4 0 12 5 7 9 27 8 43 -1 17
2 40 6 52 4 14 3 23 -5 27 -8 3 -8 5 -1 5 7 1 9 12 6 27 -4 20 -2 25 8 19 9
-6 11 -4 5 6 -13 20 -13 49 -1 49 6 0 5 4 -3 9 -10 6 -10 10 -1 16 9 6 9 10
-1 16 -11 7 -10 9 4 9 17 0 17 1 3 16 -17 17 -21 28 -7 20 5 -3 12 1 15 10 3
8 2 13 -3 10 -20 -13 -18 24 2 38 12 9 18 15 12 13 -5 -1 -10 3 -10 8 0 5 4 9
9 7 5 -2 5 3 -1 10 -12 14 -11 47 1 66 4 7 2 12 -4 12 -6 0 -8 5 -4 11 5 10
10 60 13 172 1 12 5 16 14 11 9 -6 9 -5 0 7 -15 18 -14 79 1 79 7 0 7 3 1 8
-14 10 -17 32 -4 32 8 0 8 5 -1 15 -7 8 -8 15 -3 15 5 0 9 9 10 20 1 13 -3 18
-10 14 -7 -3 -4 1 6 9 11 9 14 18 8 21 -6 4 -8 12 -5 19 12 33 10 87 -5 92
-11 4 -12 8 -3 17 16 16 15 55 0 61 -10 4 -9 6 1 6 11 1 11 4 0 18 -12 15 -12
16 1 8 9 -5 7 1 -5 15 -11 13 -14 20 -7 16 6 -4 12 -2 12 3 0 6 -4 11 -10 11
-5 0 -6 7 -3 17 5 12 3 14 -7 8 -8 -5 -11 -4 -7 2 8 12 -17 66 -39 84 -19 15
-104 29 -104 17 0 -5 -5 -6 -11 -3 -16 11 -69 12 -69 2 0 -4 -5 -5 -11 -1 -15
9 -93 9 -107 0 -7 -4 -12 -2 -12 5 0 8 -4 8 -15 -1 -9 -8 -15 -8 -15 -2 0 11
-38 10 -57 -1 -6 -4 -15 -2 -19 4 -4 8 -9 7 -15 -2 -7 -12 -9 -12 -9 0 0 10
-3 11 -14 2 -8 -7 -17 -8 -19 -4 -4 7 -62 9 -62 3 0 -1 -10 -3 -22 -4 -13 -2
-23 0 -23 3 0 3 -19 6 -42 6 -29 0 -42 5 -41 13 2 6 -2 12 -7 12 -6 0 -10 5
-10 11 0 5 4 8 8 5 10 -6 9 24 -1 41 -4 6 -3 15 3 18 15 9 -9 37 -24 28 -6 -3
-7 -2 -3 3 5 5 13 10 18 10 22 3 23 5 12 12 -9 6 -6 15 11 33 39 42 84 150 77
187 -1 6 3 12 9 12 7 0 9 8 5 20 -5 15 -2 20 12 20 15 0 15 2 4 9 -13 8 -13
12 0 27 12 16 12 17 -1 9 -13 -8 -13 -7 -1 8 11 14 11 20 0 34 -10 11 -10 14
-1 9 12 -7 14 -3 14 47 1 15 5 27 11 27 6 0 7 3 4 6 -3 4 -2 15 3 25 7 12 6
20 -1 25 -9 5 -6 11 6 21 11 7 14 13 9 13 -6 0 -11 7 -11 15 0 8 3 12 7 10 4
-2 8 16 9 42 0 25 4 49 7 54 3 5 -1 9 -8 9 -9 0 -9 3 -2 8 6 4 11 14 12 22 0
8 3 27 6 43 4 15 3 27 -2 27 -14 0 -12 44 3 67 8 12 15 29 15 38 0 8 5 15 11
15 5 0 7 5 4 10 -3 6 0 10 7 10 9 0 9 3 -2 10 -11 7 -11 10 -2 10 7 0 10 5 7
10 -3 6 -1 10 5 10 7 0 10 6 7 14 -3 8 -2 16 3 18 6 2 11 15 12 31 1 15 5 27
9 27 4 0 9 9 12 20 3 11 0 20 -6 20 -7 0 -5 5 3 10 8 5 11 10 6 10 -5 0 -4 6
1 13 5 6 9 29 8 50 -1 21 3 37 9 37 6 0 4 5 -4 10 -10 7 -11 10 -2 10 8 0 10
8 6 26 -4 17 -3 25 3 21 5 -3 10 0 10 8 0 8 -4 15 -9 15 -5 0 -4 8 1 18 7 13
6 23 -2 32 -9 10 -9 11 1 6 8 -5 12 3 12 28 0 19 5 38 10 41 13 8 13 25 -1 25
-5 0 -7 -5 -3 -12 5 -7 3 -8 -5 -3 -9 5 -9 11 -3 17 6 6 8 17 5 26 -4 8 -2 13
3 9 5 -3 11 5 12 19 1 13 -4 24 -11 24 -8 0 -7 4 3 10 10 6 11 10 3 10 -7 0
-13 5 -13 11 0 5 5 7 10 4 11 -7 7 36 -5 55 -3 5 -1 10 6 10 8 0 7 5 -2 17 -8
9 -9 14 -2 10 7 -5 9 0 6 13 -3 11 -10 17 -17 14 -6 -3 -3 1 7 9 10 8 13 17 8
18 -6 2 -12 29 -14 59 -2 30 -9 56 -16 58 -9 3 -9 8 1 20 11 14 10 15 -7 8
-16 -6 -18 -5 -7 5 14 15 16 43 2 34 -7 -4 -7 3 0 19 6 17 6 26 0 26 -6 0 -10
14 -10 31 0 17 -5 39 -10 49 -6 10 -11 30 -12 44 -1 14 -9 28 -16 31 -11 4
-12 8 -2 20 8 9 8 15 2 15 -13 0 -27 38 -23 63 1 9 -3 17 -8 17 -6 0 -11 7
-11 16 0 8 -5 12 -10 9 -6 -4 -10 -3 -9 2 5 27 -2 53 -13 47 -8 -5 -9 -2 -5 9
4 11 1 17 -8 17 -8 0 -14 3 -14 8 3 20 -2 32 -13 26 -6 -4 -8 -3 -5 4 9 14 -3
43 -14 36 -5 -3 -9 4 -9 16 0 11 -7 23 -15 26 -8 4 -13 10 -10 14 3 4 -2 10
-10 14 -8 3 -15 12 -15 21 0 8 -7 15 -16 15 -8 0 -13 4 -10 9 5 8 -3 19 -62
86 -15 17 -26 33 -24 38 1 4 -5 7 -14 7 -8 0 -12 5 -9 10 3 6 2 10 -4 10 -16
0 -141 127 -133 135 4 5 1 5 -5 1 -7 -4 -20 2 -30 14 -10 11 -23 20 -31 20 -7
0 -10 5 -7 11 4 6 -2 13 -14 16 -12 3 -21 9 -21 14 0 5 -7 9 -15 9 -8 0 -15 7
-15 15 0 8 -6 12 -13 9 -7 -2 -24 6 -37 18 -14 13 -28 22 -32 21 -5 -2 -8 2
-8 7 0 6 -5 10 -11 10 -6 0 -17 7 -26 15 -8 8 -19 13 -24 10 -5 -4 -9 -1 -9 5
0 6 -4 8 -10 5 -5 -3 -10 -2 -10 2 0 5 -19 17 -42 27 -24 10 -58 25 -77 33
-19 8 -44 16 -57 17 -13 0 -24 6 -24 13 0 7 -7 10 -15 7 -8 -4 -21 -1 -29 5
-7 6 -15 9 -18 6 -3 -3 -25 2 -49 11 -24 9 -62 18 -84 21 -22 3 -42 8 -45 12
-3 3 -16 7 -30 8 -51 4 -70 7 -70 13 0 3 -8 6 -17 7 -22 1 -98 12 -138 19 -34
6 -670 16 -676 10z"/>
<path d="M5608 2503 c7 -3 16 -2 19 1 4 3 -2 6 -13 5 -11 0 -14 -3 -6 -6z"/>
</g>
</svg>
