<svg xmlns="http://www.w3.org/2000/svg" xmlns:xlink="http://www.w3.org/1999/xlink" version="1.1" id="Layer_1" x="0px" y="0px" viewBox="0 0 399.5 116.90791320800781" style="enable-background:new 0 0 399.5 116.9;" xml:space="preserve" preserveAspectRatio="xMidYMid meet">

<g fill="#fff" id="814cae2d-2a70-42a0-b76e-efbdffe420dd">
	<g id="849b5f2a-c6a1-4054-a01a-50a133af463b">
		<polygon points="250.4,10.5 232.4,10.5 232.4,45.8 218.4,45.8 218.4,63.8 232.4,63.8 232.4,97.1 232.4,115.1 250.4,115.1     281.3,115.1 281.3,97.1 250.4,97.1 250.4,63.8 295.2,63.8 295.2,45.8 250.4,45.8   "></polygon>
		<path d="M381.5,31.9v9.8c-6.9-6.5-16.1-10-25.5-9.8c-23.5,0-41.5,19-41.5,42.5s18,42.5,41.5,42.5c9.5,0.2,18.6-3.4,25.5-9.8v8.1    h18V31.9H381.5z M356.9,98.8c-13.5,0-24.5-11-24.5-24.5s11-24.5,24.5-24.5s24.5,11,24.5,24.5c0,0,0,0,0,0    C381.5,87.9,370.5,98.9,356.9,98.8C356.9,98.9,356.9,98.9,356.9,98.8L356.9,98.8z"></path>
		<path d="M43.5,31.9c-9.4-0.2-18.6,3.3-25.5,9.8V0H0v115.1h18v-8c6.9,6.4,16.1,10,25.5,9.8C67,116.9,85,97.8,85,74.4    S67,31.9,43.5,31.9z M42.5,98.8c-13.2,0-24-10.4-24.5-23.6v-1.8c0.5-13.5,11.9-24.1,25.4-23.6S67.5,61.8,67,75.3    C66.5,88.5,55.7,98.9,42.5,98.8L42.5,98.8z"></path>
		<path d="M152.5,31.9c-23.5,0-41.5,19-41.5,42.5s18,42.5,41.5,42.5c14.5,0.1,27.9-7.6,35.3-20l-17.9-1.7l0,0    c-11.5,9-28.2,7-37.2-4.5c-2.2-2.8-3.8-5.9-4.7-9.3h65.6c0.4-2.3,0.5-4.7,0.6-7C194.1,50.9,176,31.9,152.5,31.9z M128,67.4    c3.9-14.1,18.5-22.4,32.6-18.6c9,2.5,16.1,9.5,18.6,18.6H128z"></path>
	</g>
</g>
</svg>