<svg viewBox="0 0 138 18" xmlns="http://www.w3.org/2000/svg" fill="#dadada">
  <g fill-rule="evenodd">
    <path
      d="M0 8.486C0 4.011 2.806.161 8.138.161c2.018 0 3.618.603 5.31 2.066.626.578.695 1.6.07 2.248-.626.558-1.577.486-2.133-.07-.952-.997-1.924-1.276-3.247-1.276-3.57 0-5.285 2.53-5.285 5.357 0 2.876 1.692 5.52 5.285 5.52 1.323 0 2.552-.534 3.618-1.485.718-.556 1.715-.28 2.133.279.372.508.556 1.368-.254 2.178-1.624 1.507-3.57 1.809-5.497 1.809-5.611 0-8.138-3.825-8.138-8.3zm19.815 6.631c0 2.018-3.084 2.088-3.084.047V1.993c0-.81.627-1.413 1.392-1.413h6.168c5.888 0 7.094 7.884 2.18 9.853l3.082 3.757c1.206 1.787-1.206 3.501-2.596 1.74l-3.501-5.009h-3.64v4.196zm11.29-12.311C29.99 1.32 32.495-.556 33.7 1.25l4.06 6.052 4.103-6.052c1.229-1.692 3.803 0 2.597 1.555l-5.24 7.582v4.8c0 2.04-3.06 1.993-3.06-.023v-4.777l-5.056-7.582zm15.644-.834c0-.767.603-1.602 1.575-1.602h5.357c3.015 0 5.727 2.018 5.727 5.89 0 3.663-2.712 5.704-5.727 5.704H49.81v3.06c0 1.022-.65 1.602-1.485 1.602-.765 0-1.575-.58-1.575-1.602V1.972zm19.344 1.506h-4.057c-2.018 0-2.018-2.968 0-2.968h10.967c2.063 0 2.063 2.968 0 2.968h-3.85v11.709c0 2.018-3.06 2.063-3.06 0V3.477zm17.97 13.378c-4.29.187-8.743-2.666-8.743-8.347 0-5.704 4.453-8.51 8.744-8.51 4.056.21 8.3 3.015 8.3 8.51 0 5.497-4.244 8.347-8.3 8.347zM19.816 8.255h4.476c3.015 0 3.199-4.87 0-4.87h-4.476v4.87zm63.992-5.24c-2.596 0-5.425 1.83-5.425 5.494 0 3.64 2.829 5.497 5.425 5.497 2.666 0 5.52-1.857 5.52-5.497 0-3.663-2.854-5.495-5.52-5.495zm-33.998.278v5.773h3.872c1.553 0 2.784-1.368 2.784-2.806 0-1.622-1.231-2.967-2.784-2.967H49.81zM95.184 1.972c0-.767.603-1.602 1.575-1.602h5.357c3.015 0 5.726 2.018 5.726 5.89 0 3.663-2.711 5.704-5.726 5.704h-3.872v3.06c0 1.022-.65 1.602-1.485 1.602-.765 0-1.575-.58-1.575-1.602V1.972zm13.452 14.654c-.743-.419-1.206-1.254-.743-2.228l6.656-13.007c.625-1.229 2.295-1.276 2.875 0l6.539 13.007c.95 1.81-1.857 3.247-2.691 1.438l-1.02-2.04h-8.556l-.997 2.04c-.371.79-1.229.952-2.063.79zm14.69-13.82c-1.114-1.485 1.39-3.362 2.596-1.555l4.06 6.052 4.103-6.052c1.229-1.692 3.803 0 2.597 1.555l-5.24 7.582v4.8c0 2.04-3.06 1.993-3.06-.023v-4.777l-5.056-7.582zm-25.082.487v5.773h3.872c1.553 0 2.781-1.368 2.781-2.806 0-1.622-1.228-2.967-2.781-2.967h-3.872zm20.361 7.442l-2.619-5.726-2.853 5.726h5.472z">
    </path>
  </g>
</svg>
