<svg width="100" height="29" viewBox="0 0 100 29" fill="none" xmlns="http://www.w3.org/2000/svg">
    <path d="M7.98018 13.8148L3.27835 7.72482H0V22.0784H3.66657V13.2407L7.1606 17.8748H8.82134L12.3154 13.2407V22.0784H16.0035V7.72482H12.7036L7.98018 13.8148Z" fill="#FFFFFF"/>
    <path d="M33.4044 22.0784L27.6241 7.72482H23.6556L17.8107 22.0784H21.6929L22.5772 19.7408H28.681L29.5868 22.0784H33.4044ZM27.9045 17.1982H23.3752L25.6614 11.3132L27.9045 17.1982Z" fill="#FFFFFF"/>
    <path d="M40.9318 16.5625H45.1807V18.4285C44.1886 18.9821 43.0455 19.2487 41.9024 19.2487C39.0554 19.2487 37.2868 17.4852 37.2868 14.9016C37.2868 12.359 39.0769 10.5545 41.7298 10.5545C43.1533 10.5545 44.6199 11.0466 45.6552 11.9899L47.6395 9.6728C45.9356 8.19644 43.8435 7.45825 41.5573 7.45825C36.8554 7.45825 33.5987 10.616 33.5987 14.9016C33.5987 19.2897 36.8554 22.3449 41.7298 22.3449C44.1886 22.3449 46.6042 21.5657 48.3081 20.0279V13.8763H40.9318V16.5625Z" fill="#FFFFFF"/>
    <path d="M60.5722 16.2139L53.843 7.72482H50.845V22.0784H54.4038V13.6098L61.1114 22.0784H64.1309V7.72482H60.5722V16.2139Z" fill="#FFFFFF"/>
    <path d="M79.5869 0.126465C73.9125 0.126465 69.3125 4.49976 69.3125 9.8945V28.3733H88.7492C94.4236 28.3733 99.0236 24 99.0236 18.6052V0.126465H79.5869ZM79.5416 7.72517V22.0787H75.8319V7.72517H79.5416ZM81.5788 10.965V7.72517H94.0667V10.965H89.6668V22.0787H85.9571V10.965H81.5788Z" fill="#423eff"/>
</svg>