<svg xmlns="http://www.w3.org/2000/svg" width="133" height="24" viewBox="0 0 133 24">
  <g fill="#3495db" fill-rule="evenodd">
    <path d="M57.522 19.814a7.409 7.409 0 1 1-.004-14.817 7.409 7.409 0 0 1 .004 14.817zm0-3.445a3.964 3.964 0 1 1 .02-7.927 3.964 3.964 0 0 1-.02 7.927zM78.673 8.903V5.458H65.765v3.445h4.468v10.202h3.723V8.903zM118.246 5.42h4.22l2.904 7.714 3.55-7.714h3.723l-8.595 18.538h-3.724l2.99-6.356z"/>
    <ellipse cx="98.361" cy="17.465" fill-rule="nonzero" rx="1.861" ry="1.861" transform="rotate(-90 98.361 17.465)"/>
    <path d="M3.446 18.665A7.406 7.406 0 1 0 1.554 7.868C.546 9.166 0 10.62 0 13.478v10.471h3.446v-5.284zm0-6.26a3.969 3.969 0 1 0 7.938.007 3.969 3.969 0 0 0-7.938-.006zM105.946 18.665a7.406 7.406 0 1 0-1.892-10.797c-1.008 1.298-1.554 2.752-1.554 5.61v10.471h3.446v-5.284zm0-6.26a3.969 3.969 0 1 0 7.938.007 3.969 3.969 0 0 0-7.938-.006zM27.938 18.665A7.406 7.406 0 1 1 29.83 7.868c1.007 1.298 1.553 2.752 1.553 5.61v6.165h-3.446v-.978zm0-6.26a3.969 3.969 0 1 1-7.937.007 3.969 3.969 0 0 1 7.937-.006zM91.152 18.665a7.406 7.406 0 1 1 1.893-10.797c1.007 1.298 1.554 2.752 1.554 5.61v6.165h-3.447v-.978zm0-6.26a3.969 3.969 0 1 1-7.937.007 3.969 3.969 0 0 1 7.937-.006zM38.634 15.688A3.961 3.961 0 1 0 43.035 9.1a3.961 3.961 0 0 0-4.4 6.588zm7.81-12.465V.009c-.614 0-1.184 0-1.714-.005-2.343-.01-3.925-.018-5.159.21-2.422.444-4.77 2.223-5.495 4.643-.37 1.255-.639 5.422-.647 7.377v.005a7.407 7.407 0 1 0 3.167-5.916c.559-1.514 2.133-2.643 3.651-2.925 1.35-.249 3.057-.219 4.685-.19.519.006 1.026.015 1.512.015z"/>
  </g>
</svg>
