<svg xmlns="http://www.w3.org/2000/svg" xmlns:xlink="http://www.w3.org/1999/xlink" viewBox="0 0 270 270" version="1.1" preserveAspectRatio="xMidYMid meet" style="box-shadow: none; border-top-left-radius: 0px; border-top-right-radius: 0px; border-bottom-right-radius: 0px; border-bottom-left-radius: 0px; opacity: 1;" fill="#54bdff" fill-opacity="1">
    <g id="abb3223f-3657-41c7-a80a-cd7c1c07c02a" stroke="none" stroke-width="1" fill="" fill-rule="evenodd" style="undefined" fill-opacity="">
        <path d="M39.9837515,230.900547 C15.2932569,206.436309 0,172.50412 0,135 C0,60.4415588 60.4415588,0 135,0 C163.645138,0 190.206518,8.92162243 212.057055,24.137779 L194.971625,55.5335609 C193.080732,59.0082199 189.441446,61.1710116 185.485598,61.1710116 L77.6323198,61.1710116 C47.9515962,61.1710116 23.8906158,85.231992 23.8906158,114.912716 C23.8906158,144.593439 47.9515962,168.65442 77.6323198,168.65442 L185.985242,168.65442 C191.949751,168.65442 196.784941,163.819229 196.784941,157.85472 C196.784941,151.890211 191.949751,147.05502 185.985242,147.05502 L77.6323198,147.05502 C59.880615,147.05502 45.490015,132.66442 45.490015,114.912716 C45.490015,97.1610108 59.880615,82.7704108 77.6323198,82.7704108 L185.485598,82.7704108 C197.35314,82.7704108 208.271001,76.2820357 213.943678,65.8580587 L229.031303,38.1333951 C254.299382,62.6664169 270,96.9996706 270,135 C270,209.558441 209.558441,270 135,270 C105.875792,270 78.9056218,260.777466 56.850604,245.093511 L71.8391299,217.550951 C73.7300222,214.076292 77.3693089,211.9135 81.3251563,211.9135 L189.178435,211.9135 C218.859158,211.9135 242.920139,187.85252 242.920139,158.171796 C242.920139,128.491073 218.859158,104.430092 189.178435,104.430092 L80.8255126,104.430092 C74.8610032,104.430092 70.025813,109.265282 70.025813,115.229792 C70.025813,121.194301 74.8610032,126.029492 80.8255126,126.029492 L189.178435,126.029492 C206.930139,126.029492 221.320739,140.420092 221.320739,158.171796 C221.320739,175.923501 206.930139,190.314101 189.178435,190.314101 L81.3251563,190.314101 C69.457614,190.314101 58.5397539,196.802476 52.8670769,207.226453 L39.9837515,230.900547 Z" id="a512c627-16c6-4a84-965e-2b13b2ea1d9c" fill="" style="undefined" fill-opacity=""></path>
    </g>
</svg>