<?xml version="1.0" ?><svg id="Layer_1" style="enable-background:new 0 0 612 792;" version="1.1" viewBox="0 0 612 792" xml:space="preserve" xmlns="http://www.w3.org/2000/svg" xmlns:xlink="http://www.w3.org/1999/xlink"><style type="text/css">
	.st0{clip-path:url(#SVGID_2_);fill:#00AEEF;}
</style><g><g><defs><rect height="512" id="SVGID_1_" width="512" x="50" y="140"/></defs><clipPath id="SVGID_2_"><use style="overflow:visible;" xlink:href="#SVGID_1_"/></clipPath><path class="st0" d="M562,619V254l0,0c-0.1-2.9-1.2-6.1-4.1-9L457.4,144.5c0,0-5.3-4.9-11.7-4.5l0,0H83c0,0-33,0-33,33v446    c0,0,0,33,33,33h446C529,652,562,652,562,619L562,619z M453,303c0,22-22,22-22,22H181c-22,0-22-22-22-22V198c0-22,22-22,22-22h250    c22,0,22,22,22,22V303L453,303z M526,594c0,22-22,22-22,22H108c-22,0-22-22-22-22V394c0-22,22-22,22-22h396c22,0,22,22,22,22V594    L526,594z M435,296v-91c0,0,0-15-15-15h-49c0,0-15,0-15,15v91c0,0,0,15,15,15h49C420,311,435,311,435,296L435,296z"/></g></g></svg>