<?xml version="1.0" ?><svg height="512" id="Layer_1" version="1.1" viewBox="0 0 512 512" width="512" xml:space="preserve" xmlns="http://www.w3.org/2000/svg" xmlns:cc="http://creativecommons.org/ns#" xmlns:dc="http://purl.org/dc/elements/1.1/" xmlns:inkscape="http://www.inkscape.org/namespaces/inkscape" xmlns:rdf="http://www.w3.org/1999/02/22-rdf-syntax-ns#" xmlns:sodipodi="http://sodipodi.sourceforge.net/DTD/sodipodi-0.dtd" xmlns:svg="http://www.w3.org/2000/svg"><defs id="defs12"/><g id="g6636"><rect height="512" id="rect2987" rx="64" ry="64" style="fill:#d0422a;fill-opacity:1;fill-rule:nonzero;stroke:none" width="512" x="0" y="1.7053026e-013"/><path d="m 387.10669,55.999998 h -108.2446 c -28.36879,0 -64.09767,4.18666 -94.03544,28.84445 -22.62224,19.440002 -33.62667,46.186652 -33.62667,70.346672 0,40.93776 31.5289,82.42665 87.22223,82.42665 5.25332,0 11.00889,-0.53332 16.8311,-1.04444 -2.63112,6.28 -5.28443,11.52888 -5.28443,20.46668 0,16.27999 8.41332,26.23555 15.76431,35.68888 -23.61766,1.56445 -67.76876,4.18665 -100.36432,24.12445 -31.00001,18.40888 -40.47556,45.15555 -40.47556,64.06221 C 124.88431,419.75999 161.67999,456 237.87997,456 c 90.38212,0 138.21342,-49.86666 138.21342,-99.24445 0,-36.18665 -21.0223,-54.06221 -44.1424,-73.48445 l -18.9243,-14.68888 c -5.7557,-4.73333 -13.6355,-11.01779 -13.6355,-22.57778 0,-11.54221 7.8798,-18.90666 14.6976,-25.72889 22.058,-17.31554 44.1424,-35.68888 44.1424,-74.53333 0,-39.90667 -25.2445,-60.906662 -37.3156,-70.875552 h 32.5956 l 33.5955,-18.86667 z m -46.2044,321.239992 c 0,32.54668 -26.8135,56.68 -77.2668,56.68 -56.2133,0 -92.48439,-26.77333 -92.48439,-64.0222 0,-37.2978 33.63554,-49.8578 45.18221,-54.06224 22.08444,-7.35999 50.45338,-8.40443 55.17338,-8.40443 5.2622,0 7.889,0 12.1112,0.51553 39.9466,28.34225 57.2844,42.5289 57.2844,69.29334 z m -42.049,-169.02221 c -8.4134,8.38221 -22.6132,14.68889 -35.7555,14.68889 -45.17337,0 -65.65781,-58.28001 -65.65781,-93.43557 0,-13.65331 2.63112,-27.81331 11.54667,-38.844422 8.41332,-10.4978 23.11556,-17.3289 36.78665,-17.3289 43.60449,0 66.22229,58.795542 66.22229,96.577762 0,9.46668 -1.0712,26.24891 -13.1423,38.34224 z" id="Google" style="fill:#ffffff;fill-opacity:1"/></g></svg>